<?xml version="1.0" encoding="UTF-8" standalone="no"?>
<!-- Created with Inkscape (http://www.inkscape.org/) -->

<svg
   width="210mm"
   height="297mm"
   viewBox="0 0 210 297"
   version="1.1"
   id="svg1"
   xml:space="preserve"
   inkscape:version="1.3.2 (091e20e, 2023-11-25, custom)"
   sodipodi:docname="logo.svg"
   xmlns:inkscape="http://www.inkscape.org/namespaces/inkscape"
   xmlns:sodipodi="http://sodipodi.sourceforge.net/DTD/sodipodi-0.dtd"
   xmlns="http://www.w3.org/2000/svg"
   xmlns:svg="http://www.w3.org/2000/svg"><sodipodi:namedview
     id="namedview1"
     pagecolor="#505050"
     bordercolor="#eeeeee"
     borderopacity="1"
     inkscape:showpageshadow="0"
     inkscape:pageopacity="0"
     inkscape:pagecheckerboard="0"
     inkscape:deskcolor="#505050"
     inkscape:document-units="mm"
     inkscape:zoom="2.0686841"
     inkscape:cx="407.02202"
     inkscape:cy="577.90359"
     inkscape:window-width="1920"
     inkscape:window-height="1017"
     inkscape:window-x="-8"
     inkscape:window-y="-8"
     inkscape:window-maximized="1"
     inkscape:current-layer="layer1" /><defs
     id="defs1" /><g
     inkscape:label="Warstwa 1"
     inkscape:groupmode="layer"
     id="layer1"><g
       id="g1"
       transform="translate(1.017433,-0.2034866)"
       inkscape:export-filename="logo128.png"
       inkscape:export-xdpi="457.14224"
       inkscape:export-ydpi="457.14224"><rect
         style="fill:#f9f9f9;fill-opacity:1;stroke:none;stroke-width:4;stroke-linecap:square;stroke-linejoin:round"
         id="rect1"
         width="7.1119967"
         height="7.1119995"
         x="93.805786"
         y="144.12683" /><path
         style="fill:#db8d20;fill-opacity:1"
         d="m 93.805793,147.68283 v -3.556 h 3.556004 3.555993 v 3.556 3.556 h -3.555993 -3.556004 z m 6.434667,2.24366 v -0.635 h -0.296327 -0.296336 v -1.18533 -1.18533 h 0.296336 0.296327 v -0.32893 -0.32893 l -0.2058,-0.13485 c -0.113187,-0.0742 -0.789463,-0.39754 -1.502823,-0.71862 l -1.29704,-0.58378 -0.16933,0.0821 c -0.0931,0.0452 -0.73131,0.39267 -1.418174,0.77226 l -1.24883,0.69017 v 0.27529 0.2753 h 0.29633 0.29634 v 1.18533 1.18533 h -0.29634 -0.29633 v 0.635 0.635 h 2.921004 2.920993 z m -4.233327,-1.82033 v -1.18533 h 0.423334 0.42333 v 1.18533 1.18533 h -0.42333 -0.423334 z m 1.778004,0 v -1.18533 h 0.46566 0.46567 v 1.18533 1.18533 h -0.46567 -0.46566 z"
         id="path1" /></g></g></svg>
